<svg height="512" viewBox="0 0 64 64" width="512" xmlns="http://www.w3.org/2000/svg"><g id="Wrench"><path d="m26.34 40.49a2 2 0 0 0 0-2.83l-.7-.71-5.66-5.66a1.98 1.98 0 0 0 -1.42-.58 2.016 2.016 0 0 0 -1.41.58 1.992 1.992 0 0 0 0 2.83l6.36 6.37a2.013 2.013 0 0 0 2.83 0z"/><path d="m29.88 35.54a2 2 0 0 0 0-2.83l-1.41-1.42h-.01l-2.47-2.47-2.48-2.48a2 2 0 0 0 -2.82 2.83l.7.71 5.66 5.66a2.022 2.022 0 0 0 2.83 0z"/><path d="m36.95 22.81-5.66-5.66a2.061 2.061 0 0 0 -2.83 0 2.013 2.013 0 0 0 0 2.83l5.66 5.66z"/><path d="m32.71 27.05-6.37-6.36a2.041 2.041 0 0 0 -2.83 0 1.992 1.992 0 0 0 0 2.82l3.89 3.89 2.48 2.48a2.061 2.061 0 0 0 2.83 0l.12-.15a2.95 2.95 0 0 1 0-2.53z"/><path d="m36.95 19.98 1.41 1.41a4.1 4.1 0 0 1 5.66 0l2.83 2.83 1.3-1.3a2.927 2.927 0 0 1 2.24-.87 8.994 8.994 0 0 0 9.36-10.73l-5.28 5.28a1.008 1.008 0 0 1 -.85.29l-4.95-.71a1 1 0 0 1 -.85-.85l-.71-4.95a1.008 1.008 0 0 1 .29-.85l5.28-5.28a8.994 8.994 0 0 0 -10.73 9.36 2.914 2.914 0 0 1 -.87 2.24z"/><path d="m52.53 43.99a11.037 11.037 0 0 1 -2.71-6.1l-.72-6.42a7.131 7.131 0 0 0 -2.01-4.19l-4.48-4.47a2.041 2.041 0 0 0 -2.83 0l-4.95 4.95a1 1 0 0 0 0 1.41 3 3 0 0 0 4.24 0 3.075 3.075 0 0 1 4.24 0 2.994 2.994 0 0 1 0 4.24l-.7.71a5 5 0 0 0 0 7.07l.7.71a1 1 0 0 1 0 1.41.978.978 0 0 1 -1.41 0l-.71-.7a7.007 7.007 0 0 1 0-9.9l.71-.71a.99.99 0 0 0 .29-.71.967.967 0 0 0 -.29-.7 1.014 1.014 0 0 0 -1.41 0 5.019 5.019 0 0 1 -6.3.63c-.03.02-.04.05-.07.07a3.919 3.919 0 0 1 -2.07 1.1 3.959 3.959 0 0 1 -3.26 5.7 3.991 3.991 0 0 1 -6.69 3.81l-3.54-3.54-2.87 2.88a2.973 2.973 0 0 1 -2.24.87c-.18-.01-.4-.02-.55-.02a9 9 0 0 0 -.01 18h.03a9 9 0 0 0 8.99-9c0-.18-.01-.36-.02-.54a2.936 2.936 0 0 1 .87-2.24l14.9-14.9a1 1 0 0 1 1.41 0 1.008 1.008 0 0 1 0 1.42l-10.61 10.61 11.32 11.31zm-33.338 9.3-4.083 4.082a1 1 0 0 1 -.707.293.989.989 0 0 1 -.258-.034l-5.577-1.491a1 1 0 0 1 -.707-.707l-1.494-5.577a1 1 0 0 1 .259-.965l4.082-4.083a1 1 0 0 1 .966-.259l5.577 1.494a1 1 0 0 1 .707.707l1.494 5.577a1 1 0 0 1 -.259.966z"/><path d="m11.713 46.63-3.266 3.266 1.195 4.462 4.462 1.195 3.266-3.266-1.196-4.461z"/><path d="m60.28 48.97-4.95-4.95-15.55 15.56.71.7a1 1 0 0 1 .292.712l20.218.008-.008-11.738a1 1 0 0 1 -.712-.292z"/></g></svg>